<svg xmlns="http://www.w3.org/2000/svg" width="400" height="300" viewBox="0 0 400 300">
  <g fill="none" fill-rule="evenodd">
    <g fill-rule="nonzero" transform="translate(40 47)">
      <rect width="162" height="218" x="78" y="-6" fill="#D9D9D9" stroke="#2B2B2B" stroke-width="2" rx="4" transform="rotate(90 159 103)"/>
      <path fill="#EFEFEF" d="M223,41 L223,57 L239,57 L239,59 L223,59 L223,75 L239,75 L239,77 L223,77 L223,93 L239,93 L239,95 L223,95 L223,111 L239,111 L239,113 L223,113 L223,129 L239,129 L239,131 L223,131 L223,147 L239,147 L239,149 L223,149 L223,165 L239,165 L239,167 L223,167 L223,183 L239,183 L239,185 L223,185 L223,201 L239,201 L239,203 L223,203 L223,211 L221,211 L221,203 L205,203 L205,211 L203,211 L203,203 L187,203 L187,211 L185,211 L185,203 L169,203 L169,211 L167,211 L167,203 L151,203 L151,211 L149,211 L149,203 L133,203 L133,211 L131,211 L131,203 L115,203 L115,211 L113,211 L113,203 L97,203 L97,211 L95,211 L95,203 L79,203 L79,201 L95,201 L95,185 L79,185 L79,183 L95,183 L95,167 L79,167 L79,165 L95,165 L95,149 L79,149 L79,147 L95,147 L95,131 L79,131 L79,129 L95,129 L95,113 L79,113 L79,111 L95,111 L95,95 L79,95 L79,93 L95,93 L95,77 L79,77 L79,75 L95,75 L95,59 L79,59 L79,57 L95,57 L95,41 L79,41 L79,39 L95,39 L95,23 L79,23 L79,21 L95,21 L95,5 L79,5 L79,3 L95,3 L95,-5 L97,-5 L97,3 L113,3 L113,-5 L115,-5 L115,3 L131,3 L131,-5 L133,-5 L133,3 L149,3 L149,-5 L151,-5 L151,3 L167,3 L167,-5 L169,-5 L169,3 L185,3 L185,-5 L187,-5 L187,3 L203,3 L203,-5 L205,-5 L205,3 L221,3 L221,-5 L223,-5 L223,3 L239,3 L239,5 L223,5 L223,21 L239,21 L239,23 L223,23 L223,39 L239,39 L239,41 L223,41 Z M221,41 L205,41 L205,57 L221,57 L221,41 Z M221,39 L221,23 L205,23 L205,39 L221,39 Z M203,41 L187,41 L187,57 L203,57 L203,41 Z M203,39 L203,23 L187,23 L187,39 L203,39 Z M185,41 L169,41 L169,57 L185,57 L185,41 Z M185,39 L185,23 L169,23 L169,39 L185,39 Z M167,41 L151,41 L151,57 L167,57 L167,41 Z M167,39 L167,23 L151,23 L151,39 L167,39 Z M149,41 L133,41 L133,57 L149,57 L149,41 Z M149,39 L149,23 L133,23 L133,39 L149,39 Z M131,41 L115,41 L115,57 L131,57 L131,41 Z M131,39 L131,23 L115,23 L115,39 L131,39 Z M113,41 L97,41 L97,57 L113,57 L113,41 Z M113,39 L113,23 L97,23 L97,39 L113,39 Z M221,201 L221,185 L205,185 L205,201 L221,201 Z M203,201 L203,185 L187,185 L187,201 L203,201 Z M185,201 L185,185 L169,185 L169,201 L185,201 Z M167,201 L167,185 L151,185 L151,201 L167,201 Z M149,201 L149,185 L133,185 L133,201 L149,201 Z M131,201 L131,185 L115,185 L115,201 L131,201 Z M113,201 L113,185 L97,185 L97,201 L113,201 Z M97,183 L113,183 L113,167 L97,167 L97,183 Z M115,183 L131,183 L131,167 L115,167 L115,183 Z M133,183 L149,183 L149,167 L133,167 L133,183 Z M151,183 L167,183 L167,167 L151,167 L151,183 Z M169,183 L185,183 L185,167 L169,167 L169,183 Z M187,183 L203,183 L203,167 L187,167 L187,183 Z M205,183 L221,183 L221,167 L205,167 L205,183 Z M221,165 L221,149 L205,149 L205,165 L221,165 Z M203,165 L203,149 L187,149 L187,165 L203,165 Z M185,165 L185,149 L169,149 L169,165 L185,165 Z M167,165 L167,149 L151,149 L151,165 L167,165 Z M149,165 L149,149 L133,149 L133,165 L149,165 Z M131,165 L131,149 L115,149 L115,165 L131,165 Z M113,165 L113,149 L97,149 L97,165 L113,165 Z M97,147 L113,147 L113,131 L97,131 L97,147 Z M115,147 L131,147 L131,131 L115,131 L115,147 Z M133,147 L149,147 L149,131 L133,131 L133,147 Z M151,147 L167,147 L167,131 L151,131 L151,147 Z M169,147 L185,147 L185,131 L169,131 L169,147 Z M187,147 L203,147 L203,131 L187,131 L187,147 Z M205,147 L221,147 L221,131 L205,131 L205,147 Z M221,129 L221,113 L205,113 L205,129 L221,129 Z M203,129 L203,113 L187,113 L187,129 L203,129 Z M185,129 L185,113 L169,113 L169,129 L185,129 Z M167,129 L167,113 L151,113 L151,129 L167,129 Z M149,129 L149,113 L133,113 L133,129 L149,129 Z M131,129 L131,113 L115,113 L115,129 L131,129 Z M113,129 L113,113 L97,113 L97,129 L113,129 Z M97,111 L113,111 L113,95 L97,95 L97,111 Z M115,111 L131,111 L131,95 L115,95 L115,111 Z M133,111 L149,111 L149,95 L133,95 L133,111 Z M151,111 L167,111 L167,95 L151,95 L151,111 Z M169,111 L185,111 L185,95 L169,95 L169,111 Z M187,111 L203,111 L203,95 L187,95 L187,111 Z M205,111 L221,111 L221,95 L205,95 L205,111 Z M221,93 L221,77 L205,77 L205,93 L221,93 Z M203,93 L203,77 L187,77 L187,93 L203,93 Z M185,93 L185,77 L169,77 L169,93 L185,93 Z M167,93 L167,77 L151,77 L151,93 L167,93 Z M149,93 L149,77 L133,77 L133,93 L149,93 Z M131,93 L131,77 L115,77 L115,93 L131,93 Z M113,93 L113,77 L97,77 L97,93 L113,93 Z M97,75 L113,75 L113,59 L97,59 L97,75 Z M115,75 L131,75 L131,59 L115,59 L115,75 Z M133,75 L149,75 L149,59 L133,59 L133,75 Z M151,75 L167,75 L167,59 L151,59 L151,75 Z M169,75 L185,75 L185,59 L169,59 L169,75 Z M187,75 L203,75 L203,59 L187,59 L187,75 Z M205,75 L221,75 L221,59 L205,59 L205,75 Z M97,21 L113,21 L113,5 L97,5 L97,21 Z M115,21 L131,21 L131,5 L115,5 L115,21 Z M133,21 L149,21 L149,5 L133,5 L133,21 Z M151,21 L167,21 L167,5 L151,5 L151,21 Z M169,21 L185,21 L185,5 L169,5 L169,21 Z M187,21 L203,21 L203,5 L187,5 L187,21 Z M205,21 L221,21 L221,5 L205,5 L205,21 Z" transform="rotate(90 159 103)"/>
      <path fill="#2B2B2B" d="M4,0 L99,0 C101.209139,-4.05812251e-16 103,1.790861 103,4 L103,76 C103,78.209139 101.209139,80 99,80 L4,80 C1.790861,80 2.705415e-16,78.209139 0,76 L-8.8817842e-16,4 C-1.15871992e-15,1.790861 1.790861,4.05812251e-16 4,0 Z"/>
      <path fill="#EFEFEF" stroke="#2B2B2B" stroke-width="2" d="M221,56 C219.343146,56 218,57.3431458 218,59 L218,131 C218,132.656854 219.343146,134 221,134 L316,134 C317.656854,134 319,132.656854 319,131 L319,59 C319,57.3431458 317.656854,56 316,56 L221,56 Z"/>
      <polygon fill="#FFF" stroke="#2B2B2B" stroke-width="2" points="275.5 121 271.986 114.324 267.068 114.324 263.378 121.351 255.297 117.838 257.581 110.635 253.716 106.946 246.514 109.23 243 101.324 249.851 97.635 249.851 92.365 243 89.027 246.514 80.77 253.716 83.054 257.581 79.541 255.297 72.338 263.73 69 267.068 75.851 271.811 76.027 275.149 69.527 283.405 73.041 281.122 80.243 284.284 83.405 291.311 81.122 294.649 89.378 288.149 92.892 288.149 97.108 294.824 100.622 291.311 109.054 284.459 106.77 281.297 109.932 283.581 117.135"/>
      <circle cx="269.189" cy="95.189" r="10.189" fill="#EFEFEF" stroke="#2B2B2B" stroke-width="2"/>
      <path fill="#FFF" stroke="#2B2B2B" stroke-width="2" d="M73,127 C71.3431458,127 70,128.343146 70,130 L70,202 C70,203.656854 71.3431458,205 73,205 L168,205 C169.656854,205 171,203.656854 171,202 L171,130 C171,128.343146 169.656854,127 168,127 L73,127 Z"/>
      <path fill="#EFEFEF" stroke="#2B2B2B" stroke-width="2" d="M103,150 C94.163444,150 87,157.163444 87,166 C87,174.836556 94.163444,182 103,182 L135,182 C143.836556,182 151,174.836556 151,166 C151,157.163444 143.836556,150 135,150 L103,150 Z"/>
      <rect width="48" height="2" x="12" y="38" fill="#FFF" rx="1"/>
      <polyline stroke="#FFF" stroke-linecap="round" stroke-linejoin="round" stroke-width="2" points="14 13 21 20 14 27"/>
      <path fill="#FFF" d="M13 50L90 50C90.5522847 50 91 50.4477153 91 51L91 51C91 51.5522847 90.5522847 52 90 52L13 52C12.4477153 52 12 51.5522847 12 51L12 51C12 50.4477153 12.4477153 50 13 50zM13 62L90 62C90.5522847 62 91 62.4477153 91 63L91 63C91 63.5522847 90.5522847 64 90 64L13 64C12.4477153 64 12 63.5522847 12 63L12 63C12 62.4477153 12.4477153 62 13 62z"/>
      <circle cx="135" cy="166" r="10" fill="#D9D9D9" stroke="#2B2B2B" stroke-width="2"/>
    </g>
    <circle cx="258" cy="142" r="7" fill="#2B2B2B" fill-rule="nonzero" stroke="#2B2B2B" stroke-width="2"/>
    <circle cx="233" cy="178" r="7" fill="#FFF" fill-rule="nonzero" stroke="#2B2B2B" stroke-width="2"/>
    <circle cx="160" cy="174" r="7" fill="#D9D9D9" fill-rule="nonzero" stroke="#2B2B2B" stroke-width="2"/>
    <circle cx="143" cy="87" r="7" fill="#FFF" fill-rule="nonzero" stroke="#2B2B2B" stroke-width="2"/>
    <path stroke="#2B2B2B" stroke-width="2" d="M148.5 91.5L227.5 172.5M237 172.5L255 148.5M251 142.5L165 170M145 94L159.5 167"/>
  </g>
</svg>
