<svg xmlns="http://www.w3.org/2000/svg" width="400" height="300" viewBox="0 0 400 300">
  <g fill="none" fill-rule="evenodd">
    <g stroke="#2B2B2B" stroke-width="2" transform="translate(122 41)">
      <path fill="#D9D9D9" fill-rule="nonzero" d="M1.42060155,1 L13.9288852,22.9426014 C14.1067876,23.2546859 14.4384156,23.4473684 14.7976454,23.4473684 L141.322605,23.4473684 C141.681835,23.4473684 142.013463,23.2546859 142.191365,22.9426014 L154.699649,1 L1.42060155,1 Z" transform="matrix(1 0 0 -1 0 24.447)"/>
      <path fill="#FFF" fill-rule="nonzero" d="M4,22 C2.34314575,22 1,23.3431458 1,25 L1,202 C1,203.656854 2.34314575,205 4,205 L152,205 C153.656854,205 155,203.656854 155,202 L155,25 C155,23.3431458 153.656854,22 152,22 L4,22 Z"/>
      <path fill="#FFF" fill-rule="nonzero" d="M14 32C12.3431458 32 11 33.3431458 11 35L11 107C11 108.656854 12.3431458 110 14 110L142 110C143.656854 110 145 108.656854 145 107L145 35C145 33.3431458 143.656854 32 142 32L14 32zM14 120C12.3431458 120 11 121.343146 11 123L11 195C11 196.656854 12.3431458 198 14 198L142 198C143.656854 198 145 196.656854 145 195L145 123C145 121.343146 143.656854 120 142 120L14 120z"/>
      <path fill="#FFF" fill-rule="nonzero" d="M17.5486971,120 C16.0300938,120 14.7510009,121.134778 14.5700665,122.642564 L12.5300665,139.642564 C12.5158329,139.761178 12.5086971,139.880536 12.5086971,140 C12.5086971,141.656854 13.8518428,143 15.5086971,143 L140.491303,143 C140.610767,143 140.730125,142.992864 140.848739,142.978631 C142.493791,142.781224 143.66734,141.287617 143.469933,139.642564 L141.429933,122.642564 C141.248999,121.134778 139.969906,120 138.451303,120 L17.5486971,120 Z"/>
      <path fill="#D9D9D9" fill-rule="nonzero" d="M21,128 L135,128 L135,123 C135,121.343146 133.656854,120 132,120 L24,120 C22.3431458,120 21,121.343146 21,123 L21,128 Z"/>
      <path fill="#EFEFEF" fill-rule="nonzero" d="M20,132 L136,132 L136,127 C136,125.343146 134.656854,124 133,124 L23,124 C21.3431458,124 20,125.343146 20,127 L20,132 Z"/>
      <path fill="#D9D9D9" fill-rule="nonzero" d="M19,136 L137,136 L137,131 C137,129.343146 135.656854,128 134,128 L22,128 C20.3431458,128 19,129.343146 19,131 L19,136 Z"/>
      <path fill="#EFEFEF" fill-rule="nonzero" d="M18,140 L138,140 L138,135 C138,133.343146 136.656854,132 135,132 L21,132 C19.3431458,132 18,133.343146 18,135 L18,140 Z"/>
      <path fill="#FFF" fill-rule="nonzero" d="M14,140 C12.3431458,140 11,141.343146 11,143 L11,215 C11,216.656854 12.3431458,218 14,218 L142,218 C143.656854,218 145,216.656854 145,215 L145,143 C145,141.343146 143.656854,140 142,140 L14,140 Z"/>
      <path fill="#D9D9D9" d="M60,194.8 L60,189.5 C60,189.5 60,183 78,183 C96,183 96,189.58975 96,190 L96,194.8 C96,194.910457 95.9104569,195 95.8,195 L60.2,195 C60.0895431,195 60,194.910457 60,194.8 Z"/>
      <path fill="#EFEFEF" d="M78.0054,179 C72.879,179 70,174.18525 70,170.2698 C70,164.3628 73.7556,162 78.0054,162 C82.2534,162 86,164.3628 86,170.2698 C86,174.18525 83.1318,179 78.0054,179 Z"/>
    </g>
    <path fill="#2B2B2B" fill-rule="nonzero" d="M53,205 L123,205 L123,207 L53,207 C52.4477153,207 52,206.552285 52,206 L52,206 C52,205.447715 52.4477153,205 53,205 Z"/>
    <rect width="9" height="2" x="40" y="205" fill="#2B2B2B" fill-rule="nonzero" rx="1"/>
    <rect width="21" height="2" x="277" y="205" fill="#2B2B2B" fill-rule="nonzero" rx="1"/>
    <g fill="#2B2B2B" fill-rule="nonzero" transform="matrix(-1 0 0 1 360 199)">
      <path d="M13,0 L83,0 L83,2 L13,2 C12.4477153,2 12,1.55228475 12,1 L12,1 C12,0.44771525 12.4477153,1.01453063e-16 13,0 Z"/>
      <rect width="9" height="2" rx="1"/>
      <rect width="21" height="2" x="237" rx="1"/>
    </g>
    <path fill="#D9D9D9" fill-rule="nonzero" stroke="#2B2B2B" stroke-width="2" d="M218,120 L182,120 C182,122.051259 182,122.178462 182,123.2 C182,126.193012 189.932055,129 200,129 C210.067945,129 218,126.193012 218,123.2 C218,121.414169 218,121.414169 218,120.217003 C218,120.138033 218,120.06597 218,120 Z"/>
    <ellipse cx="200" cy="119" fill="#ECECEC" fill-rule="nonzero" stroke="#2B2B2B" stroke-width="2" rx="18" ry="6"/>
    <path fill="#D9D9D9" fill-rule="nonzero" stroke="#2B2B2B" stroke-width="2" d="M218,110 L182,110 C182,112.051259 182,112.178462 182,113.2 C182,116.193012 189.932055,119 200,119 C210.067945,119 218,116.193012 218,113.2 C218,111.414169 218,111.414169 218,110.217003 C218,110.138033 218,110.06597 218,110 Z"/>
    <ellipse cx="200" cy="109" fill="#ECECEC" fill-rule="nonzero" stroke="#2B2B2B" stroke-width="2" rx="18" ry="6"/>
    <path fill="#D9D9D9" fill-rule="nonzero" stroke="#2B2B2B" stroke-width="2" d="M218,100 L182,100 C182,102.051259 182,102.178462 182,103.2 C182,106.193012 189.932055,109 200,109 C210.067945,109 218,106.193012 218,103.2 C218,101.414169 218,101.414169 218,100.217003 C218,100.138033 218,100.06597 218,100 Z"/>
    <ellipse cx="200" cy="99" fill="#ECECEC" fill-rule="nonzero" stroke="#2B2B2B" stroke-width="2" rx="18" ry="6"/>
  </g>
</svg>
