<svg xmlns="http://www.w3.org/2000/svg" width="400" height="300" viewBox="0 0 400 300">
  <g fill="none" transform="translate(46 41)">
    <path fill="#2B2B2B" d="M52,73 L50,73 C46.6862915,73 44,75.6862915 44,79 L44,96 L4,96 C1.790861,96 2.705415e-16,94.209139 0,92 L0,60 C-2.705415e-16,57.790861 1.790861,56 4,56 L48,56 C50.209139,56 52,57.790861 52,60 L52,73 Z M52,75 L52,92 C52,94.209139 50.209139,96 48,96 L46,96 L46,79 C46,76.790861 47.790861,75 50,75 L52,75 Z"/>
    <polyline stroke="#FFF" stroke-linecap="round" stroke-linejoin="round" stroke-width="2" points="9 63.5 12.5 67 9 70.5"/>
    <path fill="#2B2B2B" d="M196,53 L238,53 C238.552285,53 239,53.4477153 239,54 L239,54 C239,54.5522847 238.552285,55 238,55 L196,55 C195.447715,55 195,54.5522847 195,54 L195,54 C195,53.4477153 195.447715,53 196,53 Z"/>
    <rect width="74" height="2" x="188" y="160" fill="#2B2B2B" rx="1"/>
    <path fill="#2B2B2B" d="M187,168 L213,168 C213.552285,168 214,168.447715 214,169 L214,169 C214,169.552285 213.552285,170 213,170 L187,170 C186.447715,170 186,169.552285 186,169 L186,169 C186,168.447715 186.447715,168 187,168 Z"/>
    <rect width="83" height="66" x="196" y="62" fill="#FFF" stroke="#2B2B2B" stroke-width="2" rx="4"/>
    <rect width="73" height="2" x="207" y="76" fill="#2B2B2B"/>
    <circle cx="205.5" cy="69.5" r="2.5" stroke="#2B2B2B" stroke-width="2"/>
    <circle cx="214.5" cy="69.5" r="2.5" stroke="#2B2B2B" stroke-width="2"/>
    <path fill="#EFEFEF" stroke="#2B2B2B" stroke-width="2" d="M228.269225,115 L255,115 C259.970563,115 264,110.970563 264,106 L264,103.546824 L263.955517,103.0988 C263.501002,98.5209596 259.635335,95 255,95 C254.068092,95 253.156437,95.1413253 252.286871,95.4158756 L251.055514,95.8046553 L250.98719,94.515189 C250.734849,89.7527734 246.790196,86 242,86 C238.151764,86 234.766945,88.4375375 233.508873,92.0083735 L233.179096,92.9443927 L232.240593,92.6217532 C231.047993,92.2117602 229.789092,92 228.5,92 C222.148725,92 217,97.1487254 217,103.5 C217,109.679816 221.884794,114.748851 228.039307,114.990956 L228.269225,115 Z"/>
    <rect width="59" height="44" x="248" y="110" fill="#FFF" stroke="#2B2B2B" stroke-width="2" rx="4"/>
    <rect width="61" height="2" x="247" y="119" fill="#2B2B2B"/>
    <circle cx="253" cy="115" r="2" fill="#2B2B2B"/>
    <circle cx="259" cy="115" r="2" fill="#2B2B2B"/>
    <circle cx="265" cy="115" r="2" fill="#2B2B2B"/>
    <path fill="#EFEFEF" stroke="#2B2B2B" stroke-width="2" d="M278.397831,148.004438 C278.397246,148.004288 278.39775,148.003894 278.399224,148.003164 C278.400174,148.002694 278.40113,148.002219 278.40209,148.001739 Z M278.5,147.945751 C278.555381,147.910964 278.619955,147.866099 278.691898,147.811576 C278.97692,147.595571 279.333439,147.262425 279.729518,146.8376 C280.598183,145.905892 281.573671,144.627245 282.469354,143.222722 C284.640625,139.817949 286,136.284097 286,133.5 C286,129.357864 282.642136,126 278.5,126 C274.357864,126 271,129.357864 271,133.5 C271,136.284097 272.359375,139.817949 274.530646,143.222722 C275.426329,144.627245 276.401817,145.905892 277.270482,146.8376 C277.666561,147.262425 278.02308,147.595571 278.308102,147.811576 C278.380045,147.866099 278.444619,147.910964 278.5,147.945751 Z"/>
    <circle cx="278.5" cy="133.5" r="2.5" fill="#FFF" stroke="#2B2B2B" stroke-width="2"/>
    <polygon fill="#D9D9D9" stroke="#2B2B2B" stroke-width="2" points="66 0 125 109 64 218 102.5 218 164.5 109 102.5 0" transform="matrix(-1 0 0 1 228.5 0)"/>
    <polygon fill="#FFF" stroke="#2B2B2B" stroke-width="2" points="127 0 188 109 127 218 166.5 218 227.5 109 163.5 0"/>
    <path fill="#2B2B2B" d="M83 61L145 61 145 63 83 63C82.4477153 63 82 62.5522847 82 62 82 61.4477153 82.4477153 61 83 61zM119 53L145 53 145 55 119 55C118.447715 55 118 54.5522847 118 54 118 53.4477153 118.447715 53 119 53zM71 61L78 61C78.5522847 61 79 61.4477153 79 62 79 62.5522847 78.5522847 63 78 63L71 63C70.4477153 63 70 62.5522847 70 62 70 61.4477153 70.4477153 61 71 61zM87 167L145 167 145 169 87 169C86.4477153 169 86 168.552285 86 168L86 168C86 167.447715 86.4477153 167 87 167z"/>
    <rect width="9" height="2" x="74" y="167" fill="#2B2B2B" rx="1"/>
    <rect width="39" height="2" x="188" y="108" fill="#2B2B2B"/>
    <rect width="42" height="2" x="64" y="109" fill="#2B2B2B"/>
    <path fill="#2B2B2B" d="M143,155 L50,155 C47.790861,155 46,153.209139 46,151 L46,79 C46,76.790861 47.790861,75 50,75 L143,75 L143,72 C143,71.4477153 143.447715,71 144,71 C144.552285,71 145,71.4477153 145,72 L145,75 L145,155 L145,157.5 C145,158.052285 144.552285,158.5 144,158.5 C143.447715,158.5 143,158.052285 143,157.5 L143,155 Z"/>
    <rect width="48" height="2" x="58" y="113" fill="#FFF" rx="1"/>
    <rect width="31" height="2" x="9" y="77" fill="#FFF" rx="1"/>
    <rect width="15" height="2" x="9" y="84" fill="#FFF" rx="1"/>
    <polyline stroke="#FFF" stroke-linecap="round" stroke-linejoin="round" stroke-width="2" points="60 88 67 95 60 102"/>
    <path fill="#FFF" d="M59 125L137 125 137 127 59 127C58.4477153 127 58 126.552285 58 126L58 126C58 125.447715 58.4477153 125 59 125zM59 137L137 137 137 139 59 139C58.4477153 139 58 138.552285 58 138L58 138C58 137.447715 58.4477153 137 59 137z"/>
  </g>
</svg>
