<svg xmlns="http://www.w3.org/2000/svg" width="400" height="300" viewBox="0 0 400 300">
  <g fill="none" fill-rule="evenodd">
    <g fill-rule="nonzero" transform="translate(48 39)">
      <path fill="#D9D9D9" stroke="#2B2B2B" stroke-width="2" d="M36.4531972,-9.24863643 L84.803206,77.5376046 L36.4492075,164.751364 L91.1658087,164.751364 L140.101304,77.5399625 L91.167194,-9.24863643 L36.4531972,-9.24863643 Z" transform="scale(1 -1) rotate(90 165.751 0)"/>
      <path fill="#FFF" stroke="#2B2B2B" stroke-width="2" d="M78,69.4927389 L158,115.069279 L158,56.0654884 C158,54.6282035 157.228881,53.3014124 155.980043,52.5899409 L115.702285,29.6434304 C115.016482,29.2527241 114.432918,28.7052103 113.999333,28.04568 L108.282011,19.3490109 C108.02186,18.9532928 107.671721,18.6247845 107.26024,18.3903607 L82.4850321,4.27575763 C82.0325508,4.01797596 81.5207598,3.88241825 81,3.88241825 C79.3431458,3.88241825 78,5.225564 78,6.88241825 L78,69.4927389 Z"/>
      <path fill="#EFEFEF" stroke="#2B2B2B" stroke-width="2" d="M66,77.1581085 L146,122.734648 L146,63.7308581 C146,62.2935731 145.228881,60.966782 143.980043,60.2553106 L103.702285,37.3088 C103.016482,36.9180938 102.432918,36.3705799 101.999333,35.7110497 L96.2820109,27.0143806 C96.0218598,26.6186624 95.6717214,26.2901541 95.26024,26.0557304 L70.4850321,11.9411273 C70.0325508,11.6833456 69.5207598,11.5477879 69,11.5477879 C67.3431458,11.5477879 66,12.8909336 66,14.5477879 L66,77.1581085 Z"/>
      <path fill="#D9D9D9" stroke="#2B2B2B" stroke-width="2" d="M54,85.6016883 L134,131.178228 L134,72.1744378 C134,70.7371529 133.228881,69.4103618 131.980043,68.6988903 L91.7022848,45.7523798 C91.0164824,45.3616736 90.4329184,44.8141597 89.9993332,44.1546295 L84.2820109,35.4579603 C84.0218598,35.0622422 83.6717214,34.7337339 83.26024,34.4993101 L58.4850321,20.3847071 C58.0325508,20.1269254 57.5207598,19.9913677 57,19.9913677 C55.3431458,19.9913677 54,21.3345134 54,22.9913677 L54,85.6016883 Z"/>
      <path fill="#EFEFEF" stroke="#2B2B2B" stroke-width="2" d="M46.4850321,33.2718666 C46.0325508,33.0140849 45.5207598,32.8785272 45,32.8785272 C43.3431458,32.8785272 42,34.2216729 42,35.8785272 L42,90.3016949 C42,91.3796586 42.5783393,92.3747519 43.5149679,92.9083555 L117.514968,135.066655 C117.967449,135.324436 118.47924,135.459994 119,135.459994 C120.656854,135.459994 122,134.116848 122,132.459994 L122,78.6180176 C122,77.1807326 121.228881,75.8539416 119.980043,75.1424701 L46.4850321,33.2718666 Z"/>
      <path fill="#2B2B2B" stroke="#2B2B2B" stroke-width="2" d="M34.4988107,39.7654693 C34.043036,39.5026057 33.5261444,39.3642318 33,39.3642318 C31.3431458,39.3642318 30,40.7073776 30,42.3642318 L30,96.7594171 C30,97.8317045 30.5723159,98.822461 31.5011893,99.3581796 L104.501189,141.460212 C104.956964,141.723075 105.473856,141.861449 106,141.861449 C107.656854,141.861449 109,140.518303 109,138.861449 L109,85.0439192 C109,83.6142028 108.236912,82.293194 106.998414,81.5789026 L34.4988107,39.7654693 Z"/>
      <path fill="#FFF" stroke="#2B2B2B" stroke-width="2" d="M22.4988107,46.2090491 C22.043036,45.9461855 21.5261444,45.8078116 21,45.8078116 C19.3431458,45.8078116 18,47.1509573 18,48.8078116 L18,103.202997 C18,104.275284 18.5723159,105.266041 19.5011893,105.801759 L92.5011893,147.903791 C92.956964,148.166655 93.4738556,148.305029 94,148.305029 C95.6568542,148.305029 97,146.961883 97,145.305029 L97,91.487499 C97,90.0577825 96.2369121,88.7367738 94.9984143,88.0224824 L22.4988107,46.2090491 Z"/>
      <path fill="#2B2B2B" d="M109.038911,140.953307 L129.980545,140.953307 C130.425381,140.953307 130.785992,141.313919 130.785992,141.758755 L130.785992,141.758755 C130.785992,142.203591 130.425381,142.564202 129.980545,142.564202 L109.038911,142.564202 C108.594074,142.564202 108.233463,142.203591 108.233463,141.758755 L108.233463,141.758755 C108.233463,141.313919 108.594074,140.953307 109.038911,140.953307 Z"/>
      <circle cx="177.198" cy="97.265" r="1.611" fill="#2B2B2B"/>
      <circle cx="182.031" cy="97.265" r="1.611" fill="#2B2B2B"/>
      <circle cx="185.864" cy="96.265" r="1.611" fill="#2B2B2B"/>
      <path fill="#FFF" stroke="#2B2B2B" stroke-width="2" d="M35.8065152,40.9148833 L85.4768842,128.019555 L35.8085353,214.914883 L91.5025148,214.914883 L140.765694,128.018386 L91.5018353,40.9148833 L35.8065152,40.9148833 Z" transform="rotate(90 88 127.915)"/>
      <rect width="2" height="56" x="87" y="125" fill="#2B2B2B"/>
    </g>
    <g fill-rule="nonzero" transform="translate(78 94)">
      <path fill="#D9D9D9" stroke="#2B2B2B" stroke-width="2" d="M153.491385,-0.487611918 L198.151723,74.3830125 L154.06411,151.263568 L196.676646,151.263568 L239.118205,75.2635679 L196.678512,-0.733090454 L153.491385,-0.487611918 Z" transform="scale(1 -1) rotate(90 271.264 0)"/>
      <path fill="#D9D9D9" stroke="#2B2B2B" stroke-width="2" d="M131,64.018459 L200,103.280431 L200,52.8801188 C200,51.4420858 199.228085,50.1147242 197.978225,49.4035361 L163.556716,29.8172129 C162.870761,29.4268951 162.286947,28.8797396 161.853026,28.2205017 L157.013539,20.8680655 C156.76833,20.4955295 156.443144,20.1823529 156.061649,19.9513293 L135.553992,7.53242212 C135.085331,7.24861316 134.547897,7.09856876 134,7.09856876 C132.343146,7.09856876 131,8.44171451 131,10.0985688 L131,64.018459 Z" transform="matrix(-1 0 0 1 331 0)"/>
      <path fill="#FFF" stroke="#2B2B2B" stroke-width="2" d="M143,72.018459 L212,111.280431 L212,60.8801188 C212,59.4420858 211.228085,58.1147242 209.978225,57.4035361 L175.556716,37.8172129 C174.870761,37.4268951 174.286947,36.8797396 173.853026,36.2205017 L169.013539,28.8680655 C168.76833,28.4955295 168.443144,28.1823529 168.061649,27.9513293 L147.553992,15.5324221 C147.085331,15.2486132 146.547897,15.0985688 146,15.0985688 C144.343146,15.0985688 143,16.4417145 143,18.0985688 L143,72.018459 Z" transform="matrix(-1 0 0 1 355 0)"/>
      <path fill="#EFEFEF" stroke="#2B2B2B" stroke-width="2" d="M154,80.018459 L223,119.280431 L223,68.8801188 C223,67.4420858 222.228085,66.1147242 220.978225,65.4035361 L186.556716,45.8172129 C185.870761,45.4268951 185.286947,44.8797396 184.853026,44.2205017 L180.013539,36.8680655 C179.76833,36.4955295 179.443144,36.1823529 179.061649,35.9513293 L158.553992,23.5324221 C158.085331,23.2486132 157.547897,23.0985688 157,23.0985688 C155.343146,23.0985688 154,24.4417145 154,26.0985688 L154,80.018459 Z" transform="matrix(-1 0 0 1 377 0)"/>
      <path fill="#FFF" stroke="#2B2B2B" stroke-width="2" d="M170.514983,1.51052068 C170.055381,1.24161739 169.532488,1.09988875 169,1.09988875 C167.343146,1.09988875 166,2.4430345 166,4.09988875 L166,75.0120391 C166,76.0889613 166.577232,77.08326 167.512437,77.6172564 L230.512437,113.58986 C230.965526,113.848571 231.478253,113.984643 232,113.984643 C233.656854,113.984643 235,112.641497 235,110.984643 L235,41.5333222 C235,40.1125117 234.246311,38.7983326 233.019977,38.0808314 L170.514983,1.51052068 Z" transform="matrix(-1 0 0 1 401 0)"/>
      <path fill="#D9D9D9" stroke="#2B2B2B" stroke-width="2" d="M166,93 L186.507152,51.5087863 C186.996572,50.5185634 188.19606,50.1125829 189.186283,50.6020034 C189.254087,50.6355158 189.319936,50.6728475 189.383511,50.7138185 L208.368269,62.94844 C209.277215,63.5342055 210.487143,63.2914284 211.099756,62.4003556 L220.061971,49.3644064 C220.606177,48.5728337 221.636282,48.2799642 222.515532,48.6668339 L233.5,53.5 L234.5,65.5 L183,98.5 L180,110 L166,102.5 L166,93 Z"/>
      <path fill="#FFF" stroke="#2B2B2B" stroke-width="2" d="M183.50622,43.3529336 C183.048686,43.087313 182.529047,42.9474088 182,42.9474088 C180.343146,42.9474088 179,44.2905546 179,45.9474088 L179,92.4496946 C179,93.530288 179.58114,94.5273853 180.521362,95.0599875 L243.521362,130.74725 C243.972305,131.002693 244.481733,131.136957 245,131.136957 C246.656854,131.136957 248,129.793811 248,128.136957 L248,83.0977492 C248,81.67211 247.241222,80.3542244 246.008293,79.638449 L183.50622,43.3529336 Z" transform="matrix(-1 0 0 1 427 0)"/>
      <path fill="#2B2B2B" stroke="#2B2B2B" stroke-width="2" d="M196.50622,50.3529336 C196.048686,50.087313 195.529047,49.9474088 195,49.9474088 C193.343146,49.9474088 192,51.2905546 192,52.9474088 L192,99.4496946 C192,100.530288 192.58114,101.527385 193.521362,102.059987 L256.521362,137.74725 C256.972305,138.002693 257.481733,138.136957 258,138.136957 C259.656854,138.136957 261,136.793811 261,135.136957 L261,90.0977492 C261,88.67211 260.241222,87.3542244 259.008293,86.638449 L196.50622,50.3529336 Z" transform="matrix(-1 0 0 1 453 0)"/>
      <path fill="#2B2B2B" d="M215.687318,128.371952 L233.868294,128.371952 C234.254489,128.371952 234.567562,128.685025 234.567562,129.07122 L234.567562,129.07122 C234.567562,129.457416 234.254489,129.770489 233.868294,129.770489 L215.687318,129.770489 C215.301123,129.770489 214.98805,129.457416 214.98805,129.07122 L214.98805,129.07122 C214.98805,128.685025 215.301123,128.371952 215.687318,128.371952 Z"/>
      <circle cx="261.839" cy="91.311" r="1.399" fill="#2B2B2B"/>
      <circle cx="266.035" cy="91.311" r="1.399" fill="#2B2B2B"/>
      <circle cx="270.23" cy="91.311" r="1.399" fill="#2B2B2B"/>
      <path fill="#FFF" stroke="#2B2B2B" stroke-width="2" d="M152.742665,43 L197.158249,119 L152.742665,195 L195.426166,195 L239.841751,119 L195.426166,43 L152.742665,43 Z" transform="rotate(90 196 119)"/>
      <path fill="#EFEFEF" stroke="#2B2B2B" stroke-width="2" d="M223.494846,115.132989 L243.972391,103.256013 C244.935568,102.697371 246.169247,103.02531 246.72789,103.988488 C246.906128,104.295795 247,104.644744 247,105 L247,106.771917 C247,107.841586 246.430452,108.830338 245.505154,109.367011 L225.027609,121.243987 C224.064432,121.802629 222.830753,121.47469 222.27211,120.511512 C222.093872,120.204205 222,119.855256 222,119.5 L222,117.728083 C222,116.658414 222.569548,115.669662 223.494846,115.132989 Z"/>
      <path fill="#EFEFEF" stroke="#2B2B2B" stroke-width="2" d="M1.99312764,61.8604157 L21.1073596,50.7741612 C22.3457304,50.0559061 23.931889,50.4775432 24.650144,51.715914 C24.8793077,52.1110238 25,52.5596719 25,53.0164298 L25,55.2123191 C25,56.6385451 24.2406024,57.9568804 23.0068724,58.6724438 L3.89264035,69.7586984 C2.6542696,70.4769534 1.06811101,70.0553163 0.34985597,68.8169456 C0.12069228,68.4218358 6.64460441e-16,67.9731877 0,67.5164298 L3.55271368e-15,65.3205405 C4.01142295e-15,63.8943145 0.759397649,62.5759791 1.99312764,61.8604157 Z" transform="matrix(-1 0 0 1 25 0)"/>
      <rect width="2" height="43" x="195" y="119.687" fill="#2B2B2B"/>
    </g>
    <path fill="#EFEFEF" fill-rule="nonzero" stroke="#2B2B2B" stroke-width="2" d="M292,133 C298.5,130.5 300,126.418278 300,123 C300,118.581722 296.418278,116 292,117 C286,119 284,123.581722 284,127 C284,131.418278 287.581722,134 292,133 Z"/>
    <path stroke="#2B2B2B" stroke-linecap="round" stroke-width="2" d="M74.5 103.5L136 138.5M74.5 111.5L136 146.5M74.5 119.5L136 154.5"/>
    <path stroke="#FFF" stroke-linecap="round" stroke-width="2" d="M277 206.5L331.5 175.5M277 197.5L331.5 166.5M277 189.5L331.5 158.5"/>
  </g>
</svg>
