<svg xmlns="http://www.w3.org/2000/svg" xmlns:xlink="http://www.w3.org/1999/xlink" width="400" height="300" viewBox="0 0 400 300">
  <defs>
    <circle id="cdn-emptystate-a" cx="64" cy="64" r="64"/>
  </defs>
  <g fill="none" fill-rule="evenodd">
    <g transform="matrix(-1 0 0 1 339 55)">
      <g transform="translate(71 31)">
        <mask id="cdn-emptystate-b" fill="#fff">
          <use xlink:href="#cdn-emptystate-a"/>
        </mask>
        <circle cx="64" cy="64" r="65" stroke="#2B2B2B" stroke-width="2"/>
        <path fill="#D9D9D9" fill-rule="nonzero" stroke="#2B2B2B" stroke-width="2" d="M14.1778321,81.5409206 C10.2652762,80.1373729 7.46666667,76.3955116 7.46666667,72 C7.46666667,71.1053283 7.58261134,70.237737 7.80029456,69.4114322 C5.8859825,70.4408015 3.65945803,70.9595051 1.32090181,70.7959773 C-5.19309861,70.340474 -10.1096222,64.7640985 -9.66046101,58.3407941 C-9.39883644,54.5993884 -7.37447288,51.3958857 -4.44234044,49.463041 C-6.22084957,45.7122521 -7.08691347,41.4780541 -6.77785929,37.0583734 C-5.81606321,23.3040487 6.16590886,12.9125507 20.0783999,13.6742007 C19.6877254,11.6142279 19.5529385,9.47275002 19.7058608,7.28585962 C20.6768416,-6.59981328 32.8794798,-17.0581255 46.961216,-16.0734346 C61.0429522,-15.0887437 71.6713194,-3.03393202 70.7003386,10.8517409 C69.7385425,24.6060656 57.7565704,34.9975636 43.8440794,34.2359136 C44.2347539,36.2958864 44.3695408,38.4373643 44.2166185,40.6242547 C43.3961175,52.3579653 34.5554991,61.6443224 23.3380977,63.6466873 C25.9928403,65.4737819 27.7333333,68.533634 27.7333333,72 C27.7333333,73.8631249 27.2305193,75.6088113 26.3531865,77.1087639 C26.6603887,77.1147373 26.9690985,77.1284754 27.2791115,77.1501537 C37.118922,77.8382202 44.5454285,86.2647486 43.8666782,95.9713314 C43.4167355,102.405811 39.5180106,107.787568 34.0742676,110.484333 C34.4399543,111.766649 34.5925312,113.131304 34.4943358,114.535562 C34.0351812,121.10178 28.2669311,126.047424 21.6105887,125.581967 C14.9542463,125.11651 9.93043302,119.416212 10.3895877,112.849994 C10.5568171,110.458502 11.4282983,108.281979 12.7904407,106.503555 C9.65918294,103.072923 7.8864525,98.4436652 8.23357222,93.479622 C8.56822824,88.693818 10.8107538,84.4903813 14.1778321,81.5409206 Z M128.593945,54.7006954 C132.215516,58.6048476 134.114679,64.0570173 133.313919,69.7547151 C133.188409,70.6477698 133.0008,71.5167433 132.756095,72.3578518 C138.577212,77.7059788 141.757224,85.7082676 140.578148,94.0978355 C138.668041,107.688952 126.041232,117.149767 112.37538,115.229156 C99.5583406,113.427839 90.3794127,102.254787 90.8644529,89.6611287 C81.2484511,86.4597242 74.9812195,76.8035909 76.434703,66.4615182 C77.4706084,59.0906683 82.1802828,53.135718 88.4666738,50.1679133 C85.6183396,45.410106 84.3176268,39.6935954 85.1476346,33.7877829 C87.0840877,20.0092028 99.8850597,10.4178942 113.739406,12.3649956 C127.593752,14.312097 137.255113,27.0602806 135.31866,40.8388607 C134.557409,46.2554395 132.117155,51.0249169 128.593945,54.7006954 Z" mask="url(#cdn-emptystate-b)"/>
      </g>
      <path fill="#FFF" fill-rule="nonzero" stroke="#2B2B2B" stroke-width="2" d="M4,1 C2.34314575,1 1,2.34314575 1,4 L1,62 C1,63.6568542 2.34314575,65 4,65 L94.3247373,65 C95.1917284,65 96.016325,64.6249199 96.5860555,63.9714056 C97.6748327,62.7225141 97.5450344,60.8274591 96.2961429,59.7386818 L65,32.454865 L65,4 C65,2.34314575 63.6568542,1 62,1 L4,1 Z"/>
      <g fill-rule="nonzero" stroke="#2B2B2B" stroke-width="2" transform="matrix(-1 0 0 1 48 14)">
        <path fill="#EFEFEF" d="M2,1 C1.44771525,1 1,1.44771525 1,2 L1,36 C1,36.5522847 1.44771525,37 2,37 L28,37 C28.5522847,37 29,36.5522847 29,36 L29,15.8284271 C29,15.5632106 28.8946432,15.3088567 28.7071068,15.1213203 L14.8786797,1.29289322 C14.6911433,1.10535684 14.4367894,1 14.1715729,1 L2,1 Z"/>
        <path fill="#D9D9D9" d="M16,2.41421356 L16,13 C16,13.5522847 16.4477153,14 17,14 L27.5857864,14 L16,2.41421356 Z"/>
      </g>
      <rect width="4" height="9" x="31" y="34" fill="#2B2B2B" fill-rule="nonzero" rx="1"/>
      <path fill="#2B2B2B" fill-rule="nonzero" stroke="#2B2B2B" d="M28.2071068,39.5 L33,44.2928932 L37.7928932,39.5 L28.2071068,39.5 Z"/>
      <path fill="#FFF" fill-rule="nonzero" stroke="#2B2B2B" stroke-width="2" d="M183.539173,35 C181.882319,35 180.539173,36.3431458 180.539173,38 L180.539173,96 C180.539173,97.6568542 181.882319,99 183.539173,99 L273.82853,99 C274.697795,99 275.524323,98.6229575 276.094124,97.9664903 C277.180186,96.7152373 277.046273,94.8204686 275.79502,93.734406 L244.367764,66.4561761 L244.367764,38 C244.367764,36.3431458 243.024619,35 241.367764,35 L183.539173,35 Z" transform="matrix(-1 0 0 1 457.368 0)"/>
      <path fill="#FFF" fill-rule="nonzero" stroke="#2B2B2B" stroke-width="2" d="M4,127 C2.34314575,127 1,128.343146 1,130 L1,188 C1,189.656854 2.34314575,191 4,191 L94.3247373,191 C95.1917284,191 96.016325,190.62492 96.5860555,189.971406 C97.6748327,188.722514 97.5450344,186.827459 96.2961429,185.738682 L65,158.454865 L65,130 C65,128.343146 63.6568542,127 62,127 L4,127 Z" transform="matrix(1 0 0 -1 0 318)"/>
      <g fill-rule="nonzero" stroke="#2B2B2B" stroke-width="2" transform="matrix(-1 0 0 1 48 140)">
        <path fill="#EFEFEF" d="M2,1 C1.44771525,1 1,1.44771525 1,2 L1,36 C1,36.5522847 1.44771525,37 2,37 L28,37 C28.5522847,37 29,36.5522847 29,36 L29,15.8284271 C29,15.5632106 28.8946432,15.3088567 28.7071068,15.1213203 L14.8786797,1.29289322 C14.6911433,1.10535684 14.4367894,1 14.1715729,1 L2,1 Z"/>
        <path fill="#D9D9D9" d="M16,2.41421356 L16,12 C16,13.1045695 16.8954305,14 18,14 L27.5857864,14 L16,2.41421356 Z"/>
      </g>
      <rect width="4" height="9" x="31" y="160" fill="#2B2B2B" fill-rule="nonzero" rx="1"/>
      <path fill="#2B2B2B" fill-rule="nonzero" stroke="#2B2B2B" d="M28.2071068,165.5 L33,170.292893 L37.7928932,165.5 L28.2071068,165.5 Z"/>
      <polygon stroke="#979797" points="245.5 75 235 75 240 80"/>
    </g>
    <path fill="#EFEFEF" fill-rule="nonzero" stroke="#2B2B2B" stroke-width="2" d="M81,105 C80.4477153,105 80,105.447715 80,106 L80,140 C80,140.552285 80.4477153,141 81,141 L107,141 C107.552285,141 108,140.552285 108,140 L108,119.828427 C108,119.563211 107.894643,119.308857 107.707107,119.12132 L93.8786797,105.292893 C93.6911433,105.105357 93.4367894,105 93.1715729,105 L81,105 Z"/>
    <path fill="#D9D9D9" fill-rule="nonzero" stroke="#2B2B2B" stroke-width="2" d="M95,106.414214 L95,117 C95,117.552285 95.4477153,118 96,118 L106.585786,118 L95,106.414214 Z"/>
    <rect width="4" height="9" x="92" y="124" fill="#2B2B2B" fill-rule="nonzero" rx="1"/>
    <path fill="#2B2B2B" fill-rule="nonzero" stroke="#2B2B2B" d="M89.2071068,129.5 L94,134.292893 L98.7928932,129.5 L89.2071068,129.5 Z"/>
    <path stroke="#2B2B2B" stroke-linecap="round" stroke-width="2" d="M273 73.5C260.666667 62.5 246.833333 54.8333333 231.5 50.5 216.166667 46.1666667 199 45.9333333 180 49.8M172.5 52C170.166667 52.6666667 167.5 53.6666667 164.5 55M303 121C304.166667 124.666667 305.333333 130.333333 306.5 138M219 42C239 44.6666667 257.333333 52.8333333 274 66.5M309 121C311.666667 129.666667 313 139.666667 313 151M312.7 158C312.4 162.666667 312 166.166667 311.5 168.5M113.5 89.5C116.166667 85 119.666667 80.5 124 76M95 154.5C98.5 229.5 167.5 266 219.5 258M269 230C232.5 258.5 183.5 261.5 143.5 233.5"/>
  </g>
</svg>
